<svg width="1280" height="720" viewBox="0 0 1280 720" fill="none" xmlns="http://www.w3.org/2000/svg">
  <defs>
    <linearGradient id="bg" x1="0" y1="0" x2="1280" y2="720"><stop stop-color="#050712"/><stop offset="0.52" stop-color="#100722"/><stop offset="1" stop-color="#03040A"/></linearGradient>
    <linearGradient id="neon" x1="230" y1="160" x2="1050" y2="560"><stop stop-color="#18E8FF"/><stop offset="0.55" stop-color="#7E5BFF"/><stop offset="1" stop-color="#FF4DF2"/></linearGradient>
    <filter id="glow" x="-30%" y="-30%" width="160%" height="160%"><feGaussianBlur stdDeviation="10" result="b"/><feMerge><feMergeNode in="b"/><feMergeNode in="SourceGraphic"/></feMerge></filter>
  </defs>
  <rect width="1280" height="720" fill="url(#bg)"/>
  <g opacity="0.22"><path d="M0 120H1280M0 240H1280M0 360H1280M0 480H1280M0 600H1280M160 0V720M320 0V720M480 0V720M640 0V720M800 0V720M960 0V720M1120 0V720" stroke="#1EEBFF" stroke-width="1"/></g>
  <text x="92" y="118" fill="#7EEFFF" font-family="Segoe UI, Arial" font-size="30" letter-spacing="8">YA MUSIC WIDGET</text>
  <text x="92" y="168" fill="#FF63F6" font-family="Segoe UI, Arial" font-size="22" letter-spacing="4">CYBERPUNK DESKTOP OVERLAY</text>
  <path d="M150 232H330L350 252H620L642 232H1130L1160 262V552L1124 590H850L830 570H460L440 590H160L120 552V262L150 232Z" fill="rgba(5,8,22,.78)" stroke="url(#neon)" stroke-width="3" filter="url(#glow)"/>
  <path d="M170 270H330L348 288H548" stroke="#18E8FF" stroke-width="2"/>
  <path d="M1110 548H938L920 530H728" stroke="#FF4DF2" stroke-width="2"/>
  <rect x="194" y="306" width="210" height="210" rx="18" fill="#0A1024" stroke="#FF4DF2" stroke-width="3" filter="url(#glow)"/>
  <circle cx="299" cy="411" r="78" fill="url(#neon)" opacity="0.32"/>
  <path d="M262 458V364L346 411L262 458Z" fill="#EFFFFF" filter="url(#glow)"/>
  <text x="455" y="350" fill="#DFF8FF" font-family="Segoe UI, Arial" font-size="52" font-weight="700">Live HUD Player</text>
  <text x="455" y="392" fill="#FF63F6" font-family="Segoe UI, Arial" font-size="30">WebSocket sync • Playwright control • Tauri shell</text>
  <rect x="455" y="430" width="520" height="8" fill="#351445"/>
  <rect x="455" y="430" width="310" height="8" fill="url(#neon)" filter="url(#glow)"/>
  <g transform="translate(455 470)">
    <path d="M0 22L16 0H76L92 22V56L76 78H16L0 56V22Z" fill="#07152A" stroke="#18E8FF" stroke-width="2"/>
    <path d="M116 22L132 0H204L220 22V64L204 92H132L116 64V22Z" fill="#180A26" stroke="#FF4DF2" stroke-width="2" filter="url(#glow)"/>
    <path d="M244 22L260 0H320L336 22V56L320 78H260L244 56V22Z" fill="#07152A" stroke="#18E8FF" stroke-width="2"/>
    <path d="M368 22L384 0H444L460 22V56L444 78H384L368 56V22Z" fill="#180A26" stroke="#FF4DF2" stroke-width="2"/>
    <text x="28" y="48" fill="#7EEFFF" font-family="Segoe UI" font-size="24">◀</text>
    <text x="158" y="57" fill="#FF63F6" font-family="Segoe UI" font-size="36">▶</text>
    <text x="272" y="48" fill="#7EEFFF" font-family="Segoe UI" font-size="24">▶</text>
    <text x="398" y="51" fill="#FF63F6" font-family="Segoe UI" font-size="30">♡</text>
  </g>
  <g transform="translate(1015 120)">
    <circle cx="64" cy="64" r="48" fill="#12051F" stroke="#FF4DF2" stroke-width="3" filter="url(#glow)"/>
    <circle cx="64" cy="64" r="20" fill="#18E8FF" filter="url(#glow)"/>
    <text x="12" y="146" fill="#7EEFFF" font-family="Segoe UI" font-size="18">Floating Orb</text>
  </g>
  <text x="92" y="650" fill="#8CEEFF" font-family="Segoe UI, Arial" font-size="24">Tray mode • Settings wizard • Adaptive reactive effects • MSI / NSIS installer</text>
</svg>
