<svg width="1280" height="760" viewBox="0 0 1280 760" fill="none" xmlns="http://www.w3.org/2000/svg"><defs><linearGradient id="g" x1="0" y1="0" x2="1280" y2="760"><stop stop-color="#050712"/><stop offset=".5" stop-color="#12051f"/><stop offset="1" stop-color="#02040c"/></linearGradient><linearGradient id="n" x1="80" y1="80" x2="1200" y2="680"><stop stop-color="#18e8ff"/><stop offset=".55" stop-color="#7e5bff"/><stop offset="1" stop-color="#ff4df2"/></linearGradient><filter id="glow"><feGaussianBlur stdDeviation="7" result="b"/><feMerge><feMergeNode in="b"/><feMergeNode in="SourceGraphic"/></feMerge></filter></defs><rect width="1280" height="760" fill="url(#g)"/><text x="70" y="86" fill="#7eefff" font-family="Segoe UI,Arial" font-size="34" letter-spacing="6">WIDGET MODES</text><text x="70" y="124" fill="#ff65f5" font-family="Segoe UI,Arial" font-size="20">HUD • SLIM BAR • FLOATING ORB • SOURCE MENU</text><g transform="translate(70 170)"><path d="M28 0H570L606 36V262L570 300H28L0 270V30L28 0Z" fill="#060b18" stroke="url(#n)" stroke-width="3" filter="url(#glow)"/><rect x="40" y="58" width="145" height="145" rx="14" fill="#14091f" stroke="#ff4df2" stroke-width="2"/><circle cx="112" cy="130" r="42" fill="#18e8ff" opacity=".28"/><path d="M94 158V102L146 130L94 158Z" fill="#dff8ff"/><text x="220" y="86" fill="#dff8ff" font-family="Segoe UI" font-size="34" font-weight="700">Full HUD</text><text x="220" y="126" fill="#ff65f5" font-family="Segoe UI" font-size="22">live state + glow + controls</text><rect x="220" y="155" width="280" height="6" fill="#361548"/><rect x="220" y="155" width="170" height="6" fill="#18e8ff"/><g transform="translate(220 190)"><path d="M0 16L14 0H64L78 16V48L64 64H14L0 48V16Z" stroke="#18e8ff"/><path d="M96 16L110 0H170L184 16V56L170 78H110L96 56V16Z" stroke="#ff4df2"/><path d="M204 16L218 0H268L282 16V48L268 64H218L204 48V16Z" stroke="#18e8ff"/></g></g><g transform="translate(720 190)"><path d="M20 0H430L462 32V96L430 128H20L0 108V20L20 0Z" fill="#060b18" stroke="url(#n)" stroke-width="3" filter="url(#glow)"/><rect x="28" y="32" width="62" height="62" rx="8" fill="#14091f" stroke="#ff4df2"/><text x="112" y="52" fill="#dff8ff" font-family="Segoe UI" font-size="24" font-weight="700">Slim Bar</text><text x="112" y="82" fill="#ff65f5" font-family="Segoe UI" font-size="16">compact control strip</text><circle cx="350" cy="64" r="22" stroke="#18e8ff"/><circle cx="410" cy="64" r="22" stroke="#ff4df2"/></g><g transform="translate(780 400)"><circle cx="100" cy="100" r="72" fill="#0b0718" stroke="#ff4df2" stroke-width="4" filter="url(#glow)"/><circle cx="100" cy="100" r="30" fill="#18e8ff" filter="url(#glow)"/><text x="0" y="218" fill="#dff8ff" font-family="Segoe UI" font-size="28" font-weight="700">Floating Orb</text><text x="0" y="248" fill="#ff65f5" font-family="Segoe UI" font-size="16">low-power mode</text></g><g transform="translate(70 520)"><path d="M18 0H430L460 30V170L430 200H18L0 182V18L18 0Z" fill="#060b18" stroke="url(#n)" stroke-width="3" filter="url(#glow)"/><text x="30" y="48" fill="#7eefff" font-family="Segoe UI" font-size="22" letter-spacing="3">SOURCE MENU</text><rect x="30" y="72" width="380" height="30" fill="#160820" stroke="#ff4df2"/><rect x="30" y="112" width="380" height="30" fill="#071426" stroke="#18e8ff"/><rect x="30" y="152" width="380" height="30" fill="#071426" stroke="#18e8ff"/></g></svg>